<svg xmlns="http://www.w3.org/2000/svg" xmlns:xlink="http://www.w3.org/1999/xlink" viewBox="0 0 45 30"><defs><style>.cls-1{fill:#262626;}.cls-2{fill:url(#linear-gradient);}.cls-3{opacity:0;}.cls-4{fill:#fff;}.cls-5{fill:#999;}</style><linearGradient id="linear-gradient" x1="22.5" y1="0.5" x2="22.5" y2="29.5" gradientUnits="userSpaceOnUse"><stop offset="0" stop-color="#333"/><stop offset="1" stop-color="#444"/></linearGradient></defs><title>left-pressed</title><g id="Layer_2" data-name="Layer 2"><g id="Down"><path class="cls-1" d="M2.5,29.5a2,2,0,0,1-2-2V2.5a2,2,0,0,1,2-2H27.79a5.56,5.56,0,0,1,3.41,1.41L43.09,13.79a5.56,5.56,0,0,1,1.41,3.41V27.5a2,2,0,0,1-2,2Z"/><path class="cls-2" d="M27.79,2.5a3.67,3.67,0,0,1,2,.83L41.67,15.21a3.67,3.67,0,0,1,.83,2V27.5H2.5V2.5H27.79m0-2H2.5a2,2,0,0,0-2,2v25a2,2,0,0,0,2,2h40a2,2,0,0,0,2-2V17.21a5.56,5.56,0,0,0-1.41-3.41L31.21,1.91A5.56,5.56,0,0,0,27.79.5Z"/><g class="cls-3"><path class="cls-4" d="M27.79.5a5.56,5.56,0,0,1,3.41,1.41L43.09,13.79a5.56,5.56,0,0,1,1.41,3.41V27.5a2,2,0,0,1-2,2H2.5a2,2,0,0,1-2-2V2.5a2,2,0,0,1,2-2H27.79m0-.5H2.5A2.5,2.5,0,0,0,0,2.5v25A2.5,2.5,0,0,0,2.5,30h40A2.5,2.5,0,0,0,45,27.5V17.21a6,6,0,0,0-1.56-3.77L31.56,1.56A6,6,0,0,0,27.79,0Z"/></g><path class="cls-5" d="M17,17.6a.47.47,0,0,1-.16.35.49.49,0,0,1-.35.15.47.47,0,0,1-.35-.14L13,14.85l3.14-3.1a.48.48,0,0,1,.35-.16.49.49,0,0,1,.35.15.48.48,0,0,1,.16.35Z"/></g></g></svg>