<svg xmlns="http://www.w3.org/2000/svg" xmlns:xlink="http://www.w3.org/1999/xlink" viewBox="0 0 45 30"><defs><style>.cls-1{fill:#333;}.cls-2{fill:url(#linear-gradient);}.cls-3{opacity:0;}.cls-4{fill:#fff;}.cls-5{fill:#999;}</style><linearGradient id="linear-gradient" x1="22.5" y1="29.5" x2="22.5" y2="0.5" gradientUnits="userSpaceOnUse"><stop offset="0" stop-color="#333"/><stop offset="1" stop-color="#666"/></linearGradient></defs><title>right</title><g id="Layer_2" data-name="Layer 2"><g id="Normal"><path class="cls-1" d="M2.5,29.5a2,2,0,0,1-2-2V17.21a5.56,5.56,0,0,1,1.41-3.41L13.79,1.91A5.56,5.56,0,0,1,17.21.5H42.5a2,2,0,0,1,2,2v25a2,2,0,0,1-2,2Z"/><path class="cls-2" d="M42.5,2.5v25H2.5V17.21a3.67,3.67,0,0,1,.83-2L15.21,3.33a3.67,3.67,0,0,1,2-.83H42.5m0-2H17.21a5.56,5.56,0,0,0-3.41,1.41L1.91,13.79A5.56,5.56,0,0,0,.5,17.21V27.5a2,2,0,0,0,2,2h40a2,2,0,0,0,2-2V2.5a2,2,0,0,0-2-2Z"/><g class="cls-3"><path class="cls-4" d="M42.5.5a2,2,0,0,1,2,2v25a2,2,0,0,1-2,2H2.5a2,2,0,0,1-2-2V17.21a5.56,5.56,0,0,1,1.41-3.41L13.79,1.91A5.56,5.56,0,0,1,17.21.5H42.5m0-.5H17.21a6,6,0,0,0-3.77,1.56L1.56,13.44A6,6,0,0,0,0,17.21V27.5A2.5,2.5,0,0,0,2.5,30h40A2.5,2.5,0,0,0,45,27.5V2.5A2.5,2.5,0,0,0,42.5,0Z"/></g><path class="cls-5" d="M28,12.11a.47.47,0,0,1,.16-.35.49.49,0,0,1,.35-.15.47.47,0,0,1,.35.14L32,14.85l-3.14,3.1a.48.48,0,0,1-.35.16.49.49,0,0,1-.35-.15A.48.48,0,0,1,28,17.6Z"/></g></g></svg>