<svg xmlns="http://www.w3.org/2000/svg" xmlns:xlink="http://www.w3.org/1999/xlink" viewBox="0 0 30 30.29"><defs><style>.cls-1{fill:#262626;}.cls-2{fill:url(#linear-gradient);}.cls-3{opacity:0;}.cls-4{fill:#fff;}.cls-5{fill:#999;}</style><linearGradient id="linear-gradient" x1="15" y1="0.5" x2="15" y2="29.79" gradientUnits="userSpaceOnUse"><stop offset="0" stop-color="#333"/><stop offset="1" stop-color="#444"/></linearGradient></defs><title>up-left-pressed</title><g id="Layer_2" data-name="Layer 2"><g id="Down"><rect class="cls-1" x="0.5" y="0.5" width="29" height="29.29" rx="2" ry="2"/><path class="cls-2" d="M27.5,2.5V27.79H2.5V2.5h25m0-2H2.5a2,2,0,0,0-2,2V27.79a2,2,0,0,0,2,2h25a2,2,0,0,0,2-2V2.5a2,2,0,0,0-2-2Z"/><g class="cls-3"><path class="cls-4" d="M27.5.5a2,2,0,0,1,2,2V27.79a2,2,0,0,1-2,2H2.5a2,2,0,0,1-2-2V2.5a2,2,0,0,1,2-2h25m0-.5H2.5A2.5,2.5,0,0,0,0,2.5V27.79a2.5,2.5,0,0,0,2.5,2.5h25a2.5,2.5,0,0,0,2.5-2.5V2.5A2.5,2.5,0,0,0,27.5,0Z"/></g><path class="cls-5" d="M14.5,11.77a.47.47,0,0,1,.34.15.49.49,0,0,1,.15.35v1.27A4.39,4.39,0,0,1,17.85,15,4.34,4.34,0,0,1,19,18v.5A4,4,0,0,0,17.25,17,6.41,6.41,0,0,0,15,16.52v1.25a.49.49,0,0,1-.15.35.47.47,0,0,1-.34.15.49.49,0,0,1-.36-.14L11,15l3.14-3.11A.49.49,0,0,1,14.5,11.77Z"/></g></g></svg>