<svg xmlns="http://www.w3.org/2000/svg" xmlns:xlink="http://www.w3.org/1999/xlink" viewBox="0 0 30 30.29"><defs><style>.cls-1{fill:#333;}.cls-2{fill:url(#linear-gradient);}.cls-3{opacity:0;}.cls-4{fill:#fff;}.cls-5{fill:#999;}</style><linearGradient id="linear-gradient" x1="15" y1="29.79" x2="15" y2="0.5" gradientUnits="userSpaceOnUse"><stop offset="0" stop-color="#333"/><stop offset="1" stop-color="#666"/></linearGradient></defs><title>up-right</title><g id="Layer_2" data-name="Layer 2"><g id="Normal"><rect class="cls-1" x="0.5" y="0.5" width="29" height="29.29" rx="2" ry="2"/><path class="cls-2" d="M27.5,2.5V27.79H2.5V2.5h25m0-2H2.5a2,2,0,0,0-2,2V27.79a2,2,0,0,0,2,2h25a2,2,0,0,0,2-2V2.5a2,2,0,0,0-2-2Z"/><g class="cls-3"><path class="cls-4" d="M27.5.5a2,2,0,0,1,2,2V27.79a2,2,0,0,1-2,2H2.5a2,2,0,0,1-2-2V2.5a2,2,0,0,1,2-2h25m0-.5H2.5A2.5,2.5,0,0,0,0,2.5V27.79a2.5,2.5,0,0,0,2.5,2.5h25a2.5,2.5,0,0,0,2.5-2.5V2.5A2.5,2.5,0,0,0,27.5,0Z"/></g><path class="cls-5" d="M15,12.27a.51.51,0,0,1,.5-.5.47.47,0,0,1,.35.14L19,15l-3.16,3.11a.47.47,0,0,1-.35.14.51.51,0,0,1-.5-.5V16.52a6.36,6.36,0,0,0-2.25.44A4,4,0,0,0,11,18.52V18a4.5,4.5,0,0,1,4-4.48Z"/></g></g></svg>