<svg xmlns="http://www.w3.org/2000/svg" xmlns:xlink="http://www.w3.org/1999/xlink" viewBox="0 0 30 43.96"><defs><style>.cls-1{fill:#333;}.cls-2{fill:url(#linear-gradient);}.cls-3{opacity:0;}.cls-4{fill:#fff;}.cls-5{fill:#999;}</style><linearGradient id="linear-gradient" x1="15" y1="43.46" x2="15" y2="0.5" gradientUnits="userSpaceOnUse"><stop offset="0" stop-color="#333"/><stop offset="1" stop-color="#666"/></linearGradient></defs><title>up</title><g id="Layer_2" data-name="Layer 2"><g id="Normal"><path class="cls-1" d="M1.91,31.21A5.56,5.56,0,0,1,.5,27.79V2.5a2,2,0,0,1,2-2h25a2,2,0,0,1,2,2V27.79a5.56,5.56,0,0,1-1.41,3.41L16.41,42.88a2,2,0,0,1-2.83,0Z"/><path class="cls-2" d="M27.5,2.5V27.79a3.67,3.67,0,0,1-.83,2L15,41.46,3.33,29.79a3.67,3.67,0,0,1-.83-2V2.5h25m0-2H2.5a2,2,0,0,0-2,2V27.79a5.56,5.56,0,0,0,1.41,3.41L13.59,42.88a2,2,0,0,0,2.83,0L28.09,31.21a5.56,5.56,0,0,0,1.41-3.41V2.5a2,2,0,0,0-2-2Z"/><g class="cls-3"><path class="cls-4" d="M27.5.5a2,2,0,0,1,2,2V27.79a5.56,5.56,0,0,1-1.41,3.41L16.41,42.88a2,2,0,0,1-2.83,0L1.91,31.21A5.56,5.56,0,0,1,.5,27.79V2.5a2,2,0,0,1,2-2h25m0-.5H2.5A2.5,2.5,0,0,0,0,2.5V27.79a6,6,0,0,0,1.56,3.77L13.23,43.23a2.51,2.51,0,0,0,3.54,0L28.44,31.56A6,6,0,0,0,30,27.79V2.5A2.5,2.5,0,0,0,27.5,0Z"/></g><path class="cls-5" d="M12.25,17a.47.47,0,0,1-.35-.16.49.49,0,0,1-.15-.35.47.47,0,0,1,.14-.35L15,13l3.1,3.14a.48.48,0,0,1,.16.35.49.49,0,0,1-.15.35.48.48,0,0,1-.35.16Z"/></g></g></svg>